<svg width="251" height="44" viewBox="0 0 251 44" fill="none" xmlns="http://www.w3.org/2000/svg">
<g id="Frame 68">
<path id="Rectangle 66" d="M16.75 1H233L249.5 22L233 43H16.75L1 22L16.75 1Z" stroke="#D9D9D9" stroke-opacity="0.7" stroke-width="1.5"/>
<path id="Rectangle 67" d="M18.481 4H230.993L245.5 22L230.993 40H18.481L5 22L18.481 4Z" fill="#0D0D0D" fill-opacity="0.6" stroke="#D9D9D9" stroke-opacity="0.7" stroke-width="1.5"/>
<path id="New Message" d="M84.1621 13.4219H86.0566L88.0781 19.4375C88.6641 21.1367 89.1816 22.9499 89.6309 24.877C89.4681 23.7116 89.3477 22.6569 89.2695 21.7129C89.1914 20.7689 89.1523 19.8802 89.1523 19.0469V13.4219H91.1934V28.5H89.2891L87.0137 21.7129C86.8053 21.0814 86.6068 20.4336 86.418 19.7695C86.2357 19.1055 86.0664 18.4089 85.9102 17.6797C85.8971 17.5885 85.8743 17.4779 85.8418 17.3477C85.8158 17.2174 85.7832 17.0677 85.7441 16.8984C85.7637 17.0677 85.7799 17.2142 85.793 17.3379C85.806 17.4551 85.8158 17.556 85.8223 17.6406L85.9297 19.1738L86.0371 21.0391C86.0436 21.1432 86.0469 21.2702 86.0469 21.4199C86.0534 21.5697 86.0566 21.7389 86.0566 21.9277L86.1641 28.5H84.1621V13.4219ZM97.3359 25.0918H99.0742C98.9375 27.4681 97.9609 28.6562 96.1445 28.6562C95.6042 28.6562 95.1387 28.5553 94.748 28.3535C94.3639 28.1517 94.0449 27.8392 93.791 27.416C93.5371 26.9928 93.3483 26.4557 93.2246 25.8047C93.1074 25.1536 93.0488 24.3789 93.0488 23.4805C93.0488 21.6966 93.2962 20.375 93.791 19.5156C94.2923 18.6562 95.0638 18.2266 96.1055 18.2266C98.1302 18.2266 99.1426 20.0104 99.1426 23.5781V23.8125H94.875C94.875 25.974 95.3047 27.0547 96.1641 27.0547C96.9453 27.0547 97.3359 26.4004 97.3359 25.0918ZM97.2383 22.4648C97.1602 21.4036 97.0397 20.707 96.877 20.375C96.7077 20.0039 96.4342 19.8184 96.0566 19.8184C95.6725 19.8184 95.3991 20.0039 95.2363 20.375C95.0736 20.707 94.9531 21.4036 94.875 22.4648H97.2383ZM99.7871 18.3926H101.76L102.326 21.6445C102.437 22.2956 102.535 22.9238 102.619 23.5293C102.71 24.1348 102.782 24.724 102.834 25.2969L102.863 25.6484L102.902 25.2773C102.954 24.8086 103.007 24.3789 103.059 23.9883C103.117 23.5911 103.179 23.2266 103.244 22.8945L103.4 22.123L104.094 18.3926H105.451L106.105 22.123L106.32 23.2949C106.366 23.5163 106.408 23.793 106.447 24.125C106.486 24.4505 106.525 24.8379 106.564 25.2871L106.604 25.6484C106.721 24.4375 106.887 23.2624 107.102 22.123L107.795 18.3926H109.631L107.258 28.5H105.969L105.197 24.6426C105.106 24.1738 105.028 23.6953 104.963 23.207C104.898 22.7122 104.842 22.1882 104.797 21.6348C104.79 21.5697 104.784 21.4915 104.777 21.4004C104.771 21.3092 104.761 21.2018 104.748 21.0781C104.709 21.6706 104.654 22.2467 104.582 22.8066C104.51 23.36 104.423 23.9134 104.318 24.4668L103.537 28.5H102.248L99.7871 18.3926ZM115.812 13.4219H117.551L118.879 19.5742C119.042 20.3424 119.188 21.1139 119.318 21.8887C119.455 22.6569 119.579 23.4642 119.689 24.3105C119.702 24.1999 119.712 24.1152 119.719 24.0566C119.725 23.9915 119.732 23.946 119.738 23.9199L120.021 22.1914L120.275 20.5508L120.5 19.4668L121.682 13.4219H123.439L124.826 28.5H122.883L122.541 23.3828C122.528 23.1224 122.515 22.8978 122.502 22.709C122.495 22.5202 122.492 22.3639 122.492 22.2402L122.404 20.2188L122.355 18.3633C122.355 18.3503 122.352 18.3242 122.346 18.2852C122.346 18.2396 122.342 18.181 122.336 18.1094L122.287 18.4121C122.235 18.7702 122.186 19.0827 122.141 19.3496C122.102 19.6165 122.066 19.8411 122.033 20.0234L121.779 21.4004L121.682 21.918L120.412 28.5H119.045L117.854 22.8164C117.691 22.0677 117.544 21.3092 117.414 20.541C117.29 19.7663 117.176 18.9557 117.072 18.1094L116.486 28.5H114.572L115.812 13.4219ZM130.305 25.0918H132.043C131.906 27.4681 130.93 28.6562 129.113 28.6562C128.573 28.6562 128.107 28.5553 127.717 28.3535C127.333 28.1517 127.014 27.8392 126.76 27.416C126.506 26.9928 126.317 26.4557 126.193 25.8047C126.076 25.1536 126.018 24.3789 126.018 23.4805C126.018 21.6966 126.265 20.375 126.76 19.5156C127.261 18.6562 128.033 18.2266 129.074 18.2266C131.099 18.2266 132.111 20.0104 132.111 23.5781V23.8125H127.844C127.844 25.974 128.273 27.0547 129.133 27.0547C129.914 27.0547 130.305 26.4004 130.305 25.0918ZM130.207 22.4648C130.129 21.4036 130.008 20.707 129.846 20.375C129.676 20.0039 129.403 19.8184 129.025 19.8184C128.641 19.8184 128.368 20.0039 128.205 20.375C128.042 20.707 127.922 21.4036 127.844 22.4648H130.207ZM137.688 18.5977V20.3457C137.232 20.0072 136.753 19.8379 136.252 19.8379C136.083 19.8379 135.926 19.8672 135.783 19.9258C135.64 19.9844 135.513 20.0658 135.402 20.1699C135.298 20.2676 135.214 20.388 135.148 20.5312C135.09 20.668 135.061 20.8145 135.061 20.9707C135.061 21.4525 135.497 22.0254 136.369 22.6895C136.721 22.9629 137.014 23.2168 137.248 23.4512C137.482 23.6855 137.661 23.9069 137.785 24.1152C138.039 24.5254 138.166 25.043 138.166 25.668C138.166 26.5729 137.902 27.2988 137.375 27.8457C136.854 28.3861 136.154 28.6562 135.275 28.6562C134.735 28.6562 134.188 28.4967 133.635 28.1777V26.3711C134.175 26.7747 134.686 26.9766 135.168 26.9766C136.021 26.9766 136.447 26.5566 136.447 25.7168C136.447 25.4043 136.369 25.1341 136.213 24.9062C136.141 24.7956 136.027 24.6686 135.871 24.5254C135.715 24.3757 135.523 24.2096 135.295 24.0273C134.507 23.4154 133.973 22.901 133.693 22.4844C133.42 22.0547 133.283 21.5371 133.283 20.9316C133.283 20.1178 133.534 19.4505 134.035 18.9297C134.543 18.4154 135.204 18.1582 136.018 18.1582C136.59 18.1582 137.147 18.3047 137.688 18.5977ZM143.566 18.5977V20.3457C143.111 20.0072 142.632 19.8379 142.131 19.8379C141.962 19.8379 141.805 19.8672 141.662 19.9258C141.519 19.9844 141.392 20.0658 141.281 20.1699C141.177 20.2676 141.092 20.388 141.027 20.5312C140.969 20.668 140.939 20.8145 140.939 20.9707C140.939 21.4525 141.376 22.0254 142.248 22.6895C142.6 22.9629 142.893 23.2168 143.127 23.4512C143.361 23.6855 143.54 23.9069 143.664 24.1152C143.918 24.5254 144.045 25.043 144.045 25.668C144.045 26.5729 143.781 27.2988 143.254 27.8457C142.733 28.3861 142.033 28.6562 141.154 28.6562C140.614 28.6562 140.067 28.4967 139.514 28.1777V26.3711C140.054 26.7747 140.565 26.9766 141.047 26.9766C141.9 26.9766 142.326 26.5566 142.326 25.7168C142.326 25.4043 142.248 25.1341 142.092 24.9062C142.02 24.7956 141.906 24.6686 141.75 24.5254C141.594 24.3757 141.402 24.2096 141.174 24.0273C140.386 23.4154 139.852 22.901 139.572 22.4844C139.299 22.0547 139.162 21.5371 139.162 20.9316C139.162 20.1178 139.413 19.4505 139.914 18.9297C140.422 18.4154 141.083 18.1582 141.896 18.1582C142.469 18.1582 143.026 18.3047 143.566 18.5977ZM151.311 18.3926V28.5H149.445V27.2012C149.178 27.7546 148.911 28.1354 148.645 28.3438C148.378 28.5521 148.026 28.6562 147.59 28.6562C146.75 28.6562 146.135 28.2266 145.744 27.3672C145.354 26.5078 145.158 25.1602 145.158 23.3242C145.158 21.5729 145.354 20.2871 145.744 19.4668C146.135 18.64 146.75 18.2266 147.59 18.2266C148.358 18.2266 148.977 18.6628 149.445 19.5352V18.3926H151.311ZM147.092 23.4023C147.092 24.7305 147.18 25.6582 147.355 26.1855C147.538 26.7129 147.857 26.9766 148.312 26.9766C148.729 26.9766 149.032 26.7031 149.221 26.1562C149.41 25.5703 149.504 24.6686 149.504 23.4512C149.504 22.2272 149.41 21.3223 149.221 20.7363C149.032 20.1895 148.729 19.916 148.312 19.916C147.87 19.916 147.554 20.1764 147.365 20.6973C147.183 21.179 147.092 22.0807 147.092 23.4023ZM157.346 18.3926H159.221V28.8223C159.221 30.0723 159.097 30.9382 158.85 31.4199C158.394 32.3053 157.479 32.748 156.105 32.748C155.201 32.748 154.491 32.4909 153.977 31.9766C153.456 31.4557 153.195 30.7559 153.195 29.877L153.205 29.5645H155.012C155.012 30.6387 155.412 31.1758 156.213 31.1758C156.649 31.1758 156.945 31.0391 157.102 30.7656C157.264 30.5052 157.346 29.9876 157.346 29.2129V27.2695C156.949 28.194 156.34 28.6562 155.52 28.6562C154.673 28.6562 154.048 28.2461 153.645 27.4258C153.247 26.6055 153.049 25.3229 153.049 23.5781C153.049 21.7292 153.241 20.3652 153.625 19.4863C154.003 18.6465 154.631 18.2266 155.51 18.2266C155.926 18.2266 156.265 18.3275 156.525 18.5293C156.786 18.7311 157.059 19.0892 157.346 19.6035V18.3926ZM157.375 23.5391C157.375 21.1237 156.958 19.916 156.125 19.916C155.728 19.916 155.438 20.1895 155.256 20.7363C155.074 21.2767 154.982 22.1458 154.982 23.3438C154.982 24.6133 155.077 25.5475 155.266 26.1465C155.461 26.6999 155.786 26.9766 156.242 26.9766C156.672 26.9766 156.968 26.7292 157.131 26.2344C157.294 25.7721 157.375 24.8737 157.375 23.5391ZM165.246 25.0918H166.984C166.848 27.4681 165.871 28.6562 164.055 28.6562C163.514 28.6562 163.049 28.5553 162.658 28.3535C162.274 28.1517 161.955 27.8392 161.701 27.416C161.447 26.9928 161.258 26.4557 161.135 25.8047C161.018 25.1536 160.959 24.3789 160.959 23.4805C160.959 21.6966 161.206 20.375 161.701 19.5156C162.202 18.6562 162.974 18.2266 164.016 18.2266C166.04 18.2266 167.053 20.0104 167.053 23.5781V23.8125H162.785C162.785 25.974 163.215 27.0547 164.074 27.0547C164.855 27.0547 165.246 26.4004 165.246 25.0918ZM165.148 22.4648C165.07 21.4036 164.95 20.707 164.787 20.375C164.618 20.0039 164.344 19.8184 163.967 19.8184C163.583 19.8184 163.309 20.0039 163.146 20.375C162.984 20.707 162.863 21.4036 162.785 22.4648H165.148Z" fill="white" fill-opacity="0.8"/>
</g>
</svg>
