<svg width="879" height="46" viewBox="0 0 879 46" fill="none" xmlns="http://www.w3.org/2000/svg">
<path d="M849.5 3H30.25L19 14.25L22.75 18L25 15.75H28V29.25H23.5L22 27.75L18.25 31.5L30.25 43.5H849.5L859.25 33.75L855.5 30H851V16.5H855.5L859.25 12.75L849.5 3Z" fill="#0D0D0D" fill-opacity="0.6"/>
<path d="M855.5 16.5H851V30H855.5L857.75 27.75L859.25 26.25L855.5 22.5L857 21L858.5 19.5L855.5 16.5Z" fill="#0D0D0D" fill-opacity="0.6"/>
<path d="M857.75 27.75L855.5 30L859.25 33.75L863 30L861.5 28.5L859.25 26.25L857.75 27.75Z" fill="#0D0D0D" fill-opacity="0.6"/>
<path d="M866 19.5L863.75 17.25L862.25 15.75L860 18L858.5 19.5L860.75 21.75L862.25 23.25L866 19.5Z" fill="#0D0D0D" fill-opacity="0.6"/>
<path d="M23.5 29.25H28V15.75H25L22.75 18V21L24.25 22.5L20.5 26.25L22 27.75L23.5 29.25Z" fill="#0D0D0D" fill-opacity="0.6"/>
<path d="M16 17.25L13.75 19.5L17.5 23.25L19 21.75L21.25 19.5L19.75 18L17.5 15.75L16 17.25Z" fill="#0D0D0D" fill-opacity="0.6"/>
<path d="M863.75 24.75L866 27L863 30M855.5 16.5H851V30H855.5M855.5 16.5L859.25 12.75M855.5 16.5L858.5 19.5M855.5 30L857.75 27.75L859.25 26.25M855.5 30L859.25 33.75M860.75 24.75L862.25 23.25M864.5 31.5L866 33L875.75 23.25L865.25 12.75L862.25 15.75M15.25 31.5L13.75 33L4 23.25L14.5 12.75L17.5 15.75M18.25 28.5L20.5 26.25M22 27.75L23.5 29.25H28V15.75H25L22.75 18M22 27.75L20.5 26.25M22 27.75L18.25 31.5M22.75 18L19 14.25L30.25 3H849.5L859.25 12.75M22.75 18V21L24.25 22.5L20.5 26.25M22.75 18L21.25 19.5M20.5 26.25L19 24.75L17.5 23.25M18.25 31.5L13.75 27L16 24.75L17.5 23.25M18.25 31.5L30.25 43.5H849.5L859.25 33.75M859.25 33.75L863 30M859.25 12.75L860.75 14.25L862.25 15.75M863 30L861.5 28.5L859.25 26.25M862.25 15.75L860 18L858.5 19.5M862.25 15.75L863.75 17.25L866 19.5L862.25 23.25M858.5 19.5L860.75 21.75L862.25 23.25M858.5 19.5L857 21L855.5 22.5L859.25 26.25M17.5 23.25L13.75 19.5L16 17.25L17.5 15.75M17.5 23.25L19 21.75L21.25 19.5M17.5 15.75L19.75 18L21.25 19.5" stroke="#0D0D0D" stroke-opacity="0.6" stroke-width="4.5"/>
<path d="M19 14.25L30.25 3H849.5L860.75 14.25M16 17.25L13.75 19.5L19 24.75M19 21.75L23.5 17.25H28V29.25H23.5L22 27.75M16 24.75L13.75 27L30.25 43.5H849.5L866 27L863.75 24.75M860.75 21.75L855.5 16.5H851V30H855.5L857.75 27.75M860.75 24.75L866 19.5L863.75 17.25M860 18L865.25 12.75L875.75 23.25L866 33L864.5 31.5M861.5 28.5L855.5 22.5L857 21M19.75 18L14.5 12.75L4 23.25L13.75 33L15.25 31.5M22.75 21L24.25 22.5L18.25 28.5" stroke="#D9D9D9" stroke-width="1.5"/>
</svg>
