<?xml version="1.0" encoding="utf-8"?>
<svg xmlns="http://www.w3.org/2000/svg" viewBox="0.352 43.146 41.664 88.535" width="41.664px" height="88.535px"><defs><clipPath id="clip-0"><rect x="0.064" y="43.146" width="42.887" height="88.535" style="stroke: rgb(0, 0, 0); fill: rgb(199, 19, 19);"/></clipPath></defs><path fill-rule="evenodd" clip-rule="evenodd" d="M 20.102 -15.09 L 20.102 65.41 L 20.102 65.824 L 20.395 66.117 L 39.188 84.91 L 20.395 103.703 L 20.102 103.996 L 20.102 104.41 L 20.102 998.912 L 22.102 998.912 L 22.102 104.824 L 41.309 85.617 L 42.016 84.91 L 41.309 84.202 L 22.102 64.995 L 22.102 -15.09 L 20.102 -15.09 Z M 8.133 66.379 L 6.852 65.099 L 6.852 66.91 L 6.852 75.91 L 8.352 75.91 L 8.352 68.72 L 14.072 74.44 L 15.132 73.379 L 8.133 66.379 Z M 20.144 72.391 L 19.614 71.837 L 19.072 72.379 L 13.572 77.879 L 14.632 78.94 L 19.591 73.982 L 30.063 84.91 L 19.591 95.838 L 18.632 94.88 L 17.572 95.94 L 19.072 97.44 L 19.614 97.982 L 20.144 97.429 L 31.644 85.429 L 32.141 84.91 L 31.644 84.391 L 20.144 72.391 Z M 1.852 85.91 C 1.852 83.594 2.659 81.898 3.66 80.786 C 4.685 79.647 5.871 79.16 6.602 79.16 C 8.374 79.16 9.923 79.791 11.572 81.44 L 11.584 81.452 L 11.595 81.463 L 11.607 81.475 L 11.618 81.486 L 11.63 81.498 L 11.641 81.509 L 11.652 81.521 L 11.664 81.532 L 11.675 81.543 L 11.686 81.554 L 11.697 81.565 L 11.708 81.576 L 11.719 81.587 L 11.73 81.598 L 11.741 81.609 L 11.752 81.62 L 11.763 81.631 L 11.774 81.642 L 11.784 81.652 L 11.795 81.663 L 11.806 81.674 L 11.816 81.684 L 11.827 81.695 L 11.837 81.705 L 11.847 81.715 L 11.858 81.726 L 11.868 81.736 L 11.878 81.746 L 11.888 81.756 L 11.898 81.766 L 11.908 81.776 L 11.918 81.786 L 11.928 81.796 L 11.938 81.806 L 11.948 81.816 L 11.958 81.826 L 11.968 81.836 L 11.977 81.845 L 11.987 81.855 L 11.996 81.865 L 12.006 81.874 L 12.015 81.884 L 12.025 81.893 L 12.034 81.902 L 12.044 81.912 L 12.053 81.921 L 12.062 81.93 L 12.071 81.939 L 12.08 81.948 L 12.089 81.958 L 12.099 81.967 L 12.107 81.976 L 12.116 81.984 L 12.125 81.993 L 12.134 82.002 L 12.143 82.011 L 12.152 82.02 L 12.16 82.028 L 12.169 82.037 L 12.178 82.046 L 12.186 82.054 L 12.195 82.063 L 12.203 82.071 L 12.211 82.08 L 12.22 82.088 L 12.228 82.096 L 12.236 82.104 L 12.245 82.113 L 12.253 82.121 L 12.261 82.129 L 12.269 82.137 L 12.277 82.145 L 12.285 82.153 L 12.293 82.161 L 12.301 82.169 L 12.309 82.177 L 12.316 82.184 L 12.324 82.192 L 12.332 82.2 L 12.34 82.208 L 12.347 82.215 L 12.355 82.223 L 12.362 82.23 L 12.37 82.238 L 12.377 82.245 L 12.385 82.253 L 12.392 82.26 L 12.399 82.267 L 12.407 82.275 L 12.414 82.282 L 12.421 82.289 L 12.428 82.296 L 12.435 82.303 L 12.442 82.31 L 12.449 82.317 L 12.456 82.324 L 12.463 82.331 L 12.47 82.338 L 12.477 82.345 L 12.484 82.352 L 12.49 82.358 L 12.497 82.365 L 12.504 82.372 L 12.51 82.379 L 12.517 82.385 L 12.524 82.392 L 12.53 82.398 L 12.537 82.405 L 12.543 82.411 L 12.549 82.417 L 12.556 82.424 L 12.562 82.43 L 12.568 82.436 L 12.575 82.443 L 12.581 82.449 L 12.587 82.455 L 12.593 82.461 L 12.599 82.467 L 12.605 82.473 L 12.611 82.479 L 12.617 82.485 L 12.623 82.491 L 12.629 82.497 L 12.635 82.503 L 12.641 82.509 L 12.646 82.514 L 12.652 82.52 L 12.658 82.526 L 12.663 82.531 L 12.669 82.537 L 12.675 82.543 L 12.68 82.548 L 12.686 82.554 L 12.691 82.559 L 12.697 82.565 L 12.702 82.57 L 12.707 82.575 L 12.713 82.581 L 12.718 82.586 L 12.723 82.591 L 12.728 82.597 L 12.734 82.602 L 12.739 82.607 L 12.744 82.612 L 12.749 82.617 L 12.754 82.622 L 12.759 82.627 L 12.764 82.632 L 12.769 82.637 L 12.774 82.642 L 12.779 82.647 L 12.784 82.652 L 12.788 82.657 L 12.793 82.661 L 12.798 82.666 L 12.803 82.671 L 12.807 82.675 L 12.812 82.68 L 12.817 82.685 L 12.821 82.689 L 12.826 82.694 L 12.83 82.698 L 12.835 82.703 L 12.839 82.707 L 12.844 82.712 L 12.848 82.716 L 12.852 82.72 L 12.857 82.725 L 12.861 82.729 L 12.865 82.733 L 12.87 82.738 L 12.874 82.742 L 12.878 82.746 L 12.882 82.75 L 12.886 82.754 L 12.89 82.758 L 12.894 82.762 L 12.898 82.766 L 12.902 82.77 L 12.906 82.774 L 12.91 82.778 L 12.914 82.782 L 12.918 82.786 L 12.922 82.79 L 12.926 82.794 L 12.93 82.798 L 12.933 82.801 L 12.937 82.805 L 12.941 82.809 L 12.944 82.812 L 12.948 82.816 L 12.952 82.82 L 12.955 82.823 L 12.959 82.827 L 12.962 82.83 L 12.966 82.834 L 12.969 82.838 L 12.973 82.841 L 12.976 82.844 L 12.98 82.848 L 12.983 82.851 L 12.987 82.855 L 12.99 82.858 L 12.993 82.861 L 12.996 82.865 L 13 82.868 L 13.003 82.871 L 13.006 82.874 L 13.009 82.877 L 13.013 82.881 L 13.016 82.884 L 13.019 82.887 L 13.022 82.89 L 13.025 82.893 L 13.028 82.896 L 13.031 82.899 L 13.034 82.902 L 13.037 82.905 L 13.04 82.908 L 13.043 82.911 L 13.046 82.914 L 13.049 82.917 L 13.052 82.92 L 13.054 82.922 L 13.057 82.925 L 13.06 82.928 L 13.063 82.931 L 13.065 82.934 L 13.068 82.936 L 13.071 82.939 L 13.074 82.942 L 13.076 82.944 L 13.079 82.947 L 13.082 82.95 L 13.084 82.952 L 13.087 82.955 L 13.089 82.957 L 13.092 82.96 L 13.094 82.962 L 13.097 82.965 L 13.099 82.967 L 13.102 82.97 L 13.104 82.972 L 13.107 82.975 L 13.109 82.977 L 13.111 82.98 L 13.114 82.982 L 13.116 82.984 L 13.119 82.987 L 13.121 82.989 L 13.123 82.991 L 13.125 82.993 L 13.128 82.996 L 13.13 82.998 L 13.132 83 L 13.134 83.002 L 13.137 83.005 L 13.139 83.007 L 13.141 83.009 L 13.143 83.011 L 13.145 83.013 L 13.147 83.015 L 13.149 83.017 L 13.151 83.019 L 13.153 83.021 L 13.155 83.024 L 13.157 83.026 L 13.159 83.028 L 13.161 83.03 L 13.163 83.032 L 13.165 83.033 L 13.167 83.035 L 13.169 83.037 L 13.171 83.039 L 13.173 83.041 L 13.175 83.043 L 13.177 83.045 L 13.179 83.047 L 13.181 83.049 L 13.182 83.051 L 13.184 83.052 L 13.186 83.054 L 13.188 83.056 L 13.19 83.058 L 13.191 83.06 L 13.193 83.061 L 13.195 83.063 L 13.197 83.065 L 13.198 83.066 L 13.2 83.068 L 13.202 83.07 L 13.204 83.072 L 13.205 83.073 L 13.207 83.075 L 13.209 83.077 L 13.21 83.078 L 13.212 83.08 L 13.213 83.081 L 13.215 83.083 L 13.217 83.085 L 13.218 83.086 L 13.22 83.088 L 13.221 83.089 L 13.223 83.091 L 13.224 83.093 L 13.226 83.094 L 13.228 83.096 L 13.229 83.097 L 13.231 83.099 L 13.232 83.1 L 13.234 83.102 L 13.235 83.103 L 13.237 83.105 L 13.238 83.106 L 13.239 83.107 L 13.241 83.109 L 13.242 83.11 L 13.244 83.112 L 13.245 83.113 L 13.247 83.115 L 13.248 83.116 L 13.249 83.118 L 13.251 83.119 L 13.252 83.12 L 13.254 83.122 L 13.255 83.123 L 13.256 83.124 L 13.258 83.126 L 13.259 83.127 L 13.26 83.129 L 13.262 83.13 L 13.263 83.131 L 13.265 83.133 L 13.266 83.134 L 13.267 83.135 L 13.269 83.137 L 13.27 83.138 L 13.271 83.139 L 13.272 83.141 L 13.274 83.142 L 13.275 83.143 L 13.276 83.144 L 13.278 83.146 L 13.279 83.147 L 13.28 83.148 L 13.282 83.15 L 13.283 83.151 L 13.284 83.152 L 13.285 83.153 L 13.287 83.155 L 13.288 83.156 L 13.289 83.157 L 13.29 83.159 L 13.292 83.16 L 13.293 83.161 L 13.294 83.162 L 13.296 83.164 L 13.297 83.165 L 13.298 83.166 L 13.299 83.167 L 13.301 83.169 L 13.302 83.17 L 13.303 83.171 L 13.304 83.172 L 13.306 83.174 L 13.307 83.175 L 13.308 83.176 L 13.309 83.177 L 13.311 83.179 L 13.312 83.18 L 13.313 83.181 L 13.314 83.182 L 13.316 83.184 L 13.317 83.185 L 13.318 83.186 L 13.319 83.188 L 13.321 83.189 L 13.322 83.19 L 13.323 83.191 L 13.325 83.193 L 13.326 83.194 L 13.327 83.195 L 13.328 83.196 L 13.33 83.198 L 13.331 83.199 L 13.332 83.2 L 13.333 83.202 L 13.335 83.203 L 13.336 83.204 L 13.337 83.205 L 13.339 83.207 L 13.34 83.208 L 13.341 83.209 L 13.343 83.211 L 13.344 83.212 L 13.345 83.213 L 13.347 83.215 L 13.348 83.216 L 13.349 83.217 L 13.351 83.219 L 13.352 83.22 L 13.353 83.221 L 13.355 83.223 L 13.356 83.224 L 13.357 83.225 L 13.359 83.227 L 13.36 83.228 L 13.362 83.23 L 13.363 83.231 L 13.364 83.232 L 13.366 83.234 L 13.367 83.235 L 13.369 83.237 L 13.37 83.238 L 13.372 83.24 L 13.373 83.241 L 13.374 83.242 L 13.376 83.244 L 13.377 83.245 L 13.379 83.247 L 13.38 83.248 L 13.382 83.25 L 13.383 83.251 L 13.385 83.253 L 13.386 83.254 L 13.388 83.256 L 13.389 83.258 L 13.391 83.259 L 13.393 83.261 L 13.394 83.262 L 13.396 83.264 L 13.397 83.265 L 13.399 83.267 L 13.401 83.269 L 13.402 83.27 L 13.404 83.272 L 13.405 83.274 L 13.407 83.275 L 13.409 83.277 L 13.41 83.279 L 13.412 83.28 L 13.414 83.282 L 13.416 83.284 L 13.417 83.285 L 13.419 83.287 L 13.421 83.289 L 13.423 83.291 L 13.424 83.292 L 13.426 83.294 L 13.428 83.296 L 13.43 83.298 L 13.432 83.3 L 13.433 83.302 L 13.435 83.303 L 13.437 83.305 L 13.439 83.307 L 13.441 83.309 L 13.443 83.311 L 13.445 83.313 L 13.447 83.315 L 13.449 83.317 L 13.451 83.319 L 13.453 83.321 L 13.455 83.323 L 13.457 83.325 L 13.459 83.327 L 13.461 83.329 L 13.463 83.331 L 13.465 83.333 L 13.467 83.335 L 13.469 83.337 L 13.471 83.339 L 13.473 83.341 L 13.476 83.344 L 13.478 83.346 L 13.48 83.348 L 13.482 83.35 L 13.484 83.352 L 13.487 83.355 L 13.489 83.357 L 13.491 83.359 L 13.494 83.362 L 13.496 83.364 L 13.498 83.366 L 13.501 83.369 L 13.503 83.371 L 13.505 83.373 L 13.508 83.376 L 13.51 83.378 L 13.513 83.381 L 13.515 83.383 L 13.518 83.386 L 13.52 83.388 L 13.523 83.391 L 13.525 83.393 L 13.528 83.396 L 13.53 83.398 L 13.533 83.401 L 13.536 83.404 L 13.538 83.406 L 13.541 83.409 L 13.544 83.412 L 13.546 83.414 L 13.549 83.417 L 13.552 83.42 L 13.555 83.423 L 13.557 83.426 L 13.56 83.428 L 13.563 83.431 L 13.566 83.434 L 13.569 83.437 L 13.572 83.44 L 14.632 82.379 L 14.63 82.376 L 14.627 82.373 L 14.624 82.371 L 14.621 82.368 L 14.618 82.365 L 14.615 82.362 L 14.613 82.359 L 14.61 82.357 L 14.607 82.354 L 14.604 82.351 L 14.602 82.348 L 14.599 82.346 L 14.596 82.343 L 14.594 82.34 L 14.591 82.338 L 14.588 82.335 L 14.586 82.333 L 14.583 82.33 L 14.581 82.328 L 14.578 82.325 L 14.576 82.322 L 14.573 82.32 L 14.571 82.318 L 14.568 82.315 L 14.566 82.313 L 14.564 82.31 L 14.561 82.308 L 14.559 82.306 L 14.557 82.303 L 14.554 82.301 L 14.552 82.299 L 14.55 82.296 L 14.547 82.294 L 14.545 82.292 L 14.543 82.29 L 14.541 82.287 L 14.538 82.285 L 14.536 82.283 L 14.534 82.281 L 14.532 82.279 L 14.53 82.277 L 14.528 82.274 L 14.526 82.272 L 14.524 82.27 L 14.521 82.268 L 14.519 82.266 L 14.517 82.264 L 14.515 82.262 L 14.513 82.26 L 14.511 82.258 L 14.509 82.256 L 14.507 82.254 L 14.505 82.252 L 14.504 82.25 L 14.502 82.248 L 14.5 82.246 L 14.498 82.245 L 14.496 82.243 L 14.494 82.241 L 14.492 82.239 L 14.49 82.237 L 14.489 82.235 L 14.487 82.234 L 14.485 82.232 L 14.483 82.23 L 14.481 82.228 L 14.48 82.226 L 14.478 82.225 L 14.476 82.223 L 14.475 82.221 L 14.473 82.22 L 14.471 82.218 L 14.469 82.216 L 14.468 82.215 L 14.466 82.213 L 14.464 82.211 L 14.463 82.21 L 14.461 82.208 L 14.46 82.206 L 14.458 82.205 L 14.456 82.203 L 14.455 82.202 L 14.453 82.2 L 14.452 82.198 L 14.45 82.197 L 14.449 82.195 L 14.447 82.194 L 14.446 82.192 L 14.444 82.191 L 14.442 82.189 L 14.441 82.188 L 14.44 82.186 L 14.438 82.185 L 14.437 82.183 L 14.435 82.182 L 14.434 82.18 L 14.432 82.179 L 14.431 82.177 L 14.429 82.176 L 14.428 82.175 L 14.426 82.173 L 14.425 82.172 L 14.424 82.17 L 14.422 82.169 L 14.421 82.168 L 14.419 82.166 L 14.418 82.165 L 14.417 82.163 L 14.415 82.162 L 14.414 82.161 L 14.413 82.159 L 14.411 82.158 L 14.41 82.157 L 14.409 82.155 L 14.407 82.154 L 14.406 82.153 L 14.405 82.151 L 14.403 82.15 L 14.402 82.149 L 14.401 82.147 L 14.399 82.146 L 14.398 82.145 L 14.397 82.143 L 14.395 82.142 L 14.394 82.141 L 14.393 82.14 L 14.392 82.138 L 14.39 82.137 L 14.389 82.136 L 14.388 82.134 L 14.386 82.133 L 14.385 82.132 L 14.384 82.131 L 14.383 82.129 L 14.381 82.128 L 14.38 82.127 L 14.379 82.126 L 14.378 82.124 L 14.376 82.123 L 14.375 82.122 L 14.374 82.121 L 14.373 82.119 L 14.371 82.118 L 14.37 82.117 L 14.369 82.116 L 14.368 82.114 L 14.366 82.113 L 14.365 82.112 L 14.364 82.111 L 14.363 82.109 L 14.361 82.108 L 14.36 82.107 L 14.359 82.105 L 14.357 82.104 L 14.356 82.103 L 14.355 82.102 L 14.354 82.1 L 14.352 82.099 L 14.351 82.098 L 14.35 82.097 L 14.349 82.095 L 14.347 82.094 L 14.346 82.093 L 14.345 82.092 L 14.344 82.09 L 14.342 82.089 L 14.341 82.088 L 14.34 82.086 L 14.338 82.085 L 14.337 82.084 L 14.336 82.082 L 14.334 82.081 L 14.333 82.08 L 14.332 82.079 L 14.331 82.077 L 14.329 82.076 L 14.328 82.075 L 14.327 82.073 L 14.325 82.072 L 14.324 82.071 L 14.322 82.069 L 14.321 82.068 L 14.32 82.067 L 14.318 82.065 L 14.317 82.064 L 14.316 82.062 L 14.314 82.061 L 14.313 82.06 L 14.312 82.058 L 14.31 82.057 L 14.309 82.055 L 14.307 82.054 L 14.306 82.053 L 14.304 82.051 L 14.303 82.05 L 14.302 82.048 L 14.3 82.047 L 14.299 82.045 L 14.297 82.044 L 14.296 82.042 L 14.294 82.041 L 14.293 82.039 L 14.291 82.038 L 14.29 82.036 L 14.288 82.035 L 14.287 82.033 L 14.285 82.032 L 14.284 82.03 L 14.282 82.029 L 14.28 82.027 L 14.279 82.026 L 14.277 82.024 L 14.276 82.022 L 14.274 82.021 L 14.272 82.019 L 14.271 82.018 L 14.269 82.016 L 14.268 82.014 L 14.266 82.013 L 14.264 82.011 L 14.262 82.009 L 14.261 82.008 L 14.259 82.006 L 14.257 82.004 L 14.256 82.002 L 14.254 82.001 L 14.252 81.999 L 14.25 81.997 L 14.249 81.995 L 14.247 81.994 L 14.245 81.992 L 14.243 81.99 L 14.241 81.988 L 14.239 81.986 L 14.238 81.984 L 14.236 81.982 L 14.234 81.981 L 14.232 81.979 L 14.23 81.977 L 14.228 81.975 L 14.226 81.973 L 14.224 81.971 L 14.222 81.969 L 14.22 81.967 L 14.218 81.965 L 14.216 81.963 L 14.214 81.961 L 14.212 81.959 L 14.21 81.957 L 14.208 81.955 L 14.206 81.952 L 14.204 81.95 L 14.201 81.948 L 14.199 81.946 L 14.197 81.944 L 14.195 81.942 L 14.193 81.94 L 14.191 81.937 L 14.188 81.935 L 14.186 81.933 L 14.184 81.931 L 14.181 81.928 L 14.179 81.926 L 14.177 81.924 L 14.174 81.921 L 14.172 81.919 L 14.17 81.916 L 14.167 81.914 L 14.165 81.912 L 14.162 81.909 L 14.16 81.907 L 14.158 81.904 L 14.155 81.902 L 14.152 81.899 L 14.15 81.897 L 14.147 81.894 L 14.145 81.892 L 14.142 81.889 L 14.14 81.886 L 14.137 81.884 L 14.134 81.881 L 14.132 81.878 L 14.129 81.876 L 14.126 81.873 L 14.123 81.87 L 14.121 81.867 L 14.118 81.865 L 14.115 81.862 L 14.112 81.859 L 14.109 81.856 L 14.106 81.853 L 14.104 81.85 L 14.101 81.847 L 14.098 81.844 L 14.095 81.841 L 14.092 81.838 L 14.089 81.835 L 14.086 81.832 L 14.083 81.829 L 14.079 81.826 L 14.076 81.823 L 14.073 81.82 L 14.07 81.817 L 14.067 81.814 L 14.064 81.81 L 14.06 81.807 L 14.057 81.804 L 14.054 81.801 L 14.051 81.797 L 14.047 81.794 L 14.044 81.791 L 14.04 81.787 L 14.037 81.784 L 14.034 81.78 L 14.03 81.777 L 14.027 81.773 L 14.023 81.77 L 14.02 81.766 L 14.016 81.763 L 14.012 81.759 L 14.009 81.755 L 14.005 81.752 L 14.001 81.748 L 13.998 81.744 L 13.994 81.741 L 13.99 81.737 L 13.986 81.733 L 13.983 81.729 L 13.979 81.725 L 13.975 81.722 L 13.971 81.718 L 13.967 81.714 L 13.963 81.71 L 13.959 81.706 L 13.955 81.702 L 13.951 81.698 L 13.947 81.694 L 13.943 81.689 L 13.939 81.685 L 13.934 81.681 L 13.93 81.677 L 13.926 81.673 L 13.922 81.668 L 13.917 81.664 L 13.913 81.66 L 13.909 81.655 L 13.904 81.651 L 13.9 81.647 L 13.895 81.642 L 13.891 81.638 L 13.886 81.633 L 13.882 81.629 L 13.877 81.624 L 13.873 81.619 L 13.868 81.615 L 13.863 81.61 L 13.859 81.605 L 13.854 81.601 L 13.849 81.596 L 13.844 81.591 L 13.839 81.586 L 13.835 81.581 L 13.83 81.576 L 13.825 81.571 L 13.82 81.566 L 13.815 81.561 L 13.81 81.556 L 13.805 81.551 L 13.799 81.546 L 13.794 81.541 L 13.789 81.536 L 13.784 81.531 L 13.779 81.525 L 13.773 81.52 L 13.768 81.515 L 13.763 81.509 L 13.757 81.504 L 13.752 81.499 L 13.746 81.493 L 13.741 81.488 L 13.735 81.482 L 13.73 81.476 L 13.724 81.471 L 13.718 81.465 L 13.713 81.459 L 13.707 81.454 L 13.701 81.448 L 13.695 81.442 L 13.69 81.436 L 13.684 81.43 L 13.678 81.425 L 13.672 81.419 L 13.666 81.413 L 13.66 81.407 L 13.654 81.4 L 13.648 81.394 L 13.641 81.388 L 13.635 81.382 L 13.629 81.376 L 13.623 81.369 L 13.616 81.363 L 13.61 81.357 L 13.604 81.35 L 13.597 81.344 L 13.591 81.338 L 13.584 81.331 L 13.578 81.324 L 13.571 81.318 L 13.564 81.311 L 13.558 81.305 L 13.551 81.298 L 13.544 81.291 L 13.538 81.284 L 13.531 81.277 L 13.524 81.271 L 13.517 81.264 L 13.51 81.257 L 13.503 81.25 L 13.496 81.243 L 13.489 81.235 L 13.482 81.228 L 13.474 81.221 L 13.467 81.214 L 13.46 81.207 L 13.453 81.199 L 13.445 81.192 L 13.438 81.185 L 13.43 81.177 L 13.423 81.17 L 13.415 81.162 L 13.408 81.155 L 13.4 81.147 L 13.393 81.139 L 13.385 81.132 L 13.377 81.124 L 13.369 81.116 L 13.361 81.108 L 13.354 81.1 L 13.346 81.092 L 13.338 81.084 L 13.33 81.076 L 13.322 81.068 L 13.313 81.06 L 13.305 81.052 L 13.297 81.044 L 13.289 81.036 L 13.28 81.027 L 13.272 81.019 L 13.264 81.01 L 13.255 81.002 L 13.247 80.994 L 13.238 80.985 L 13.23 80.976 L 13.221 80.968 L 13.212 80.959 L 13.204 80.95 L 13.195 80.942 L 13.186 80.933 L 13.177 80.924 L 13.168 80.915 L 13.159 80.906 L 13.15 80.897 L 13.141 80.888 L 13.132 80.879 L 13.123 80.87 L 13.114 80.86 L 13.104 80.851 L 13.095 80.842 L 13.086 80.832 L 13.076 80.823 L 13.067 80.813 L 13.057 80.804 L 13.048 80.794 L 13.038 80.785 L 13.028 80.775 L 13.018 80.765 L 13.009 80.755 L 12.999 80.746 L 12.989 80.736 L 12.979 80.726 L 12.969 80.716 L 12.959 80.706 L 12.949 80.696 L 12.939 80.685 L 12.929 80.675 L 12.918 80.665 L 12.908 80.655 L 12.898 80.644 L 12.887 80.634 L 12.877 80.623 L 12.866 80.613 L 12.856 80.602 L 12.845 80.592 L 12.834 80.581 L 12.824 80.57 L 12.813 80.56 L 12.802 80.549 L 12.791 80.538 L 12.78 80.527 L 12.769 80.516 L 12.758 80.505 L 12.747 80.494 L 12.736 80.482 L 12.724 80.471 L 12.713 80.46 L 12.702 80.449 L 12.69 80.437 L 12.679 80.426 L 12.667 80.414 L 12.656 80.403 L 12.644 80.391 L 12.632 80.379 C 10.746 78.493 8.83 77.66 6.602 77.66 C 5.333 77.66 3.769 78.422 2.545 79.783 C 1.296 81.171 0.352 83.225 0.352 85.91 C 0.352 91.159 3.54 94.16 6.102 94.16 C 7.978 94.16 9.558 93.015 10.132 92.44 L 9.072 91.38 C 8.646 91.805 7.426 92.66 6.102 92.66 C 4.664 92.66 1.852 90.661 1.852 85.91 Z M 18.572 78.94 L 19.541 79.91 L 13.572 85.88 L 14.632 86.94 L 21.132 80.44 L 21.663 79.91 L 21.132 79.379 L 19.632 77.879 L 18.572 78.94 Z M 10.132 83.44 L 8.663 84.91 L 14.632 90.88 L 13.572 91.94 L 7.072 85.44 L 6.542 84.91 L 7.072 84.379 L 9.072 82.379 L 10.132 83.44 Z M 17.072 87.44 L 19.041 89.41 L 7.352 101.099 L 7.352 95.91 L 5.852 95.91 L 5.852 102.91 L 5.852 104.721 L 7.133 103.44 L 8.133 102.44 L 20.632 89.94 L 21.163 89.41 L 20.632 88.88 L 18.132 86.38 L 17.072 87.44 Z" style="clip-path: url(&quot;#clip-0&quot;); fill: rgba(255, 255, 255, 0.95);" id="object-0" transform="matrix(1, 0, 0, 1, 1.4210854715202004e-14, 0)"/></svg>