<?xml version="1.0" encoding="utf-8"?>
<svg width="33" height="40" viewBox="0 6.501 48.46 56.953" fill="none" xmlns="http://www.w3.org/2000/svg" xmlns:bx="https://boxy-svg.com" preserveAspectRatio="none"><defs><linearGradient id="paint0_linear_2_226" x1="10.75" y1="0" x2="10.75" y2="1014" gradientUnits="userSpaceOnUse" gradientTransform="matrix(1, 0, 0, 1, 20.522902, -65.032387)"><stop stop-color="white" stop-opacity="0"/><stop offset="0.04" stop-color="white" stop-opacity="0.3"/><stop offset="0.9545" stop-color="white" stop-opacity="0.3"/><stop offset="1" stop-color="white" stop-opacity="0"/></linearGradient><bx:export><bx:file format="svg"/></bx:export></defs><path d="M 15 28.477 L 20.5 22.977 L 32 34.977 L 20.5 46.977 L 19 45.477 M 15 41.477 L 8.5 34.977 L 10.5 32.977 M 20 28.477 L 21.5 29.977 L 15 36.477 M 10.5 41.977 C 10 42.477 8.6 43.477 7 43.477 C 5 43.477 2 40.977 2 35.977 C 2 30.977 5.5 28.477 7.5 28.477 C 9.5 28.477 11.232 29.21 13 30.977 C 15 32.977 14.5 32.477 15 32.977 M 8.5 25.977 L 8.5 16.977 L 15.5 23.977 M 18.5 36.977 L 21 39.477 L 8.5 51.977 L 7.5 52.977 L 7.5 45.977" stroke="#D9D9D9" stroke-width="1.5"/><path d="M 21.524 -65.037 L 21.524 15.468 L 41.024 34.968 L 21.524 54.468 L 21.524 948.972" stroke="url(#paint0_linear_2_226)" stroke-width="2" style=""/></svg>